<!-- Created with Inkscape (http://www.inkscape.org/) -->
<svg xmlns:rdf="http://www.w3.org/1999/02/22-rdf-syntax-ns#" xmlns="http://www.w3.org/2000/svg" version="1.1" xmlns:cc="http://creativecommons.org/ns#" xmlns:dc="http://purl.org/dc/elements/1.1/" viewBox="0 0 200 200">
 <defs>
  <clipPath id="clipPath145880" clipPathUnits="userSpaceOnUse">
   <path d="M0,800,1170,800,1170,0,0,0,0,800z"/>
  </clipPath>
 </defs>
 <metadata>
  <rdf:RDF>
   <cc:Work rdf:about="">
    <dc:format>image/svg+xml</dc:format>
    <dc:type rdf:resource="http://purl.org/dc/dcmitype/StillImage"/>
    <dc:title/>
   </cc:Work>
  </rdf:RDF>
 </metadata>
 <g transform="translate(-174.96242,-217.39855)">
  <g transform="matrix(1.1286491,0,0,-1.1286618,-385.29741,989.08178)">
   <g clip-path="url(#clipPath145880)">
    <g transform="translate(673.6016,595.1162)">
     <path style="fill-rule:nonzero;fill:#c90928;" d="m0,0c0-48.934-39.672-88.602-88.604-88.602-48.931,0-88.599,39.668-88.599,88.602,0,48.93,39.668,88.599,88.599,88.599,48.929,0,88.601-39.669,88.601-88.599"/>
    </g>
    <g transform="translate(563.7939,635.0078)">
     <path style="fill-rule:nonzero;fill:#ffffff;" d="M0,0c0.821,1.544,1.711,3.146,2.81,4.242,1.106,1.11,2.239,1.738,3.467,1.923l0.082,0.012,1.005-0.031c0.308-0.102,0.615-0.208,0.822-0.308l0.346-0.17-0.064-0.383c-0.46-2.667-2.957-4.587-7.859-6.03l-1.189-0.354,0.58,1.099zm1.601-71.975c-0.982-3.036-2.356-6.921-4.163-9.729-1.895-2.789-4.206-4.179-7.074-4.27h-0.081c-0.567,0-1.133,0.005-1.63,0.106-1.839,0.182-3.404,0.846-4.48,1.923-0.86,0.961-1.35,2.231-1.461,3.795,0,0.339,0,0.685,0.121,1.042,0.475,5.369,6.071,6.393,13.16,7.699l0.256,0.049c1.541,0.273,3.252,0.63,4.975,0.993l1.111,0.236-0.734-1.844zm-33.76,41.301c0.792,0,1.325,0.715,1.391,1.405-0.007,0.815-0.641,1.496-1.45,1.496-0.293,0-0.625,0-1.057,0.105-2.126,0.271-3.876,1.288-5.166,3.006-1.193,1.591-1.792,3.668-1.692,5.858-0.005,0.187,0.02,0.393,0.047,0.605,0.024,0.167,0.044,0.326,0.044,0.494,1.188,8.578,10.648,9.599,20.665,10.683,2.463,0.26,5.01,0.538,7.492,0.926,1.922,0.276,3.901,0.558,5.784,0.929l0.91,0.187-0.318-0.875c-1.452-3.967-4.247-11.845-6.638-20.097-3.127-10.459-4.848-18.057-4.848-21.391l-0.025-0.164-0.066-0.202c0.01-3.183,0.744-5.976,2.065-7.959,1.686-2.578,4.279-3.886,7.71-3.886h0.187c5.538,0,10.395,2.662,14.857,8.139l1.888,2.322-0.988-2.824c-0.614-1.742-1.222-3.463-1.817-5.14-1.229-3.453-2.386-6.72-3.333-9.549l-0.087-0.273-0.274-0.071c-2.185-0.564-4.553-1.042-7.446-1.51-8.755-1.595-15.053-2.748-15.764-10.48-0.088-0.475-0.088-0.807-0.088-1.269,0.088-2.19,0.836-4.098,2.21-5.645,1.489-1.675,3.643-2.656,6.399-2.915,0.643-0.095,1.272-0.095,2.003-0.095,3.856,0.086,6.931,1.878,9.407,5.489,2.079,3.119,3.433,7.183,4.522,10.449l1.212,3.636,0.268,0.071c1.861,0.524,3.493,1.091,4.983,1.755,4.239,1.693,8.121,4.331,11.554,7.844l-2.054,1.988c-3.156-3.232-6.656-5.572-10.687-7.143-0.576-0.292-1.245-0.573-1.802-0.759l-0.998-0.332,0.337,0.995c1.349,3.992,3.096,8.756,4.783,13.357,0.784,2.144,1.575,4.297,2.335,6.409,1.47,3.992,2.642,7.268,3.928,10.948l0.126,0.251c0.269,0.845,0.805,2.391,1.629,4.556,0.022,0.203,0.091,0.337,0.182,0.428,0.277,0.77,0.566,1.606,0.87,2.488,0.6,1.736,1.277,3.705,2.07,5.779,2.431,6.73,5.711,15.721,9.173,25.18,0.135,0.371,0.131,0.77-0.027,1.117-0.144,0.348-0.428,0.609-0.783,0.737-0.74,0.27-1.586-0.152-1.86-0.902-1.992-5.292-3.943-10.649-5.802-15.737-1.205-3.294-2.368-6.474-3.469-9.454-1.124-3.178-2.151-6.081-2.997-8.424l-0.715-1.585c-2.686-5.909-5.726-12.615-9.468-17.74-4.42-6.191-9.092-9.203-14.277-9.203h-0.187c-2.963,0-4.52,1.401-5.299,2.574-0.998,1.531-1.497,3.675-1.497,6.378v0.371c0,4.15,2.947,14.665,4.703,20.56,2.573,8.594,5.378,16.904,7.507,22.235l0.105,0.259,0.266,0.059c8.296,1.858,12.273,4.753,12.892,9.389,0.096,0.399,0.067,0.569,0.02,0.706l-0.025,0.164v0.279c-0.126,0.724-0.62,1.383-1.544,2.003-0.661,0.408-1.43,0.585-2.252,0.764l-1.675-0.01c-1.792-0.241-3.594-1.192-5.155-2.748-1.475-1.576-2.623-3.616-3.464-5.215-0.095-0.276-0.262-0.645-0.437-1.048-0.212-0.494-0.45-1.037-0.654-1.6l-0.101-0.283-0.297-0.054c-2.532-0.47-5.342-0.936-8.156-1.406-2.35-0.366-4.751-0.649-7.079-0.919-11.305-1.33-21.983-2.584-23.483-13.011,0.005-0.17-0.021-0.447-0.045-0.718-0.021-0.243-0.04-0.484-0.04-0.705-0.091-2.88,0.725-5.693,2.234-7.743,1.763-2.31,4.233-3.765,7.148-4.193,0.443-0.086,0.878-0.086,1.33-0.086l0.15-0.519v0.509z"/>
    </g>
    <g transform="translate(602.5195,593.9873)">
     <path style="fill-rule:nonzero;fill:#ffffff;" d="m0,0c0,3.739-2.221,5.18-6.996,5.18-1.149,0-2.815-0.072-3.703-0.146v-10.845c0.851-0.039,2.738-0.15,3.703-0.15,5.072,0,6.996,1.63,6.996,5.477v0.484zm-6.996-8.775c-1.186,0-2.738,0.111-3.703,0.187v-10.4c0-0.374-0.26-0.741-0.668-0.741h-1.998c-0.369,0-0.664,0.333-0.664,0.741v25.8c0,0.518,0.332,0.85,0.89,0.923,1.59,0.188,3.996,0.298,6.143,0.298,6,0,10.363-2.072,10.363-8.033v-0.484c0-6.182-4.363-8.291-10.363-8.291"/>
    </g>
    <g transform="translate(623.0273,594.0615)">
     <path style="fill-rule:nonzero;fill:#ffffff;" d="m0,0c0,3.699-2.408,4.923-7.033,4.923-1.149,0-3.188,0-4.074-0.111v-10.144c0.775,0,3.222-0.076,4.074-0.076,4.549,0,7.033,1.148,7.033,5.15v0.258zm3.961-19.805-2.592,0c-0.443,0-0.519,0-0.816,0.48l-6.625,11.034h-0.332-0.629c-1.225,0-3.147,0.068-4.074,0.11v-10.884c0-0.372-0.262-0.74-0.663-0.74h-2.003c-0.37,0-0.666,0.332-0.666,0.74v25.911c0,0.518,0.22,0.739,0.892,0.815,1.59,0.188,4.363,0.298,6.514,0.298,5.849,0,10.365-1.964,10.365-7.959v-0.258c0-4.147-2.443-6.588-5.816-7.48l6.812-11.366c0.076-0.111,0.115-0.221,0.115-0.333,0-0.223-0.15-0.368-0.482-0.368"/>
    </g>
    <g transform="translate(645.8281,590.3965)">
     <path style="fill-rule:nonzero;fill:#ffffff;" d="m0,0c0,6.217-2.518,8.588-6.59,8.588-4.037,0-6.625-2.371-6.625-8.588v-4.778c0-6.217,2.553-8.589,6.625-8.589,4.037,0,6.59,2.372,6.59,8.589v4.778zm-6.59-16.4c-5.808,0-10.033,3.407-10.033,11.622v4.778c0,8.215,4.225,11.624,10.033,11.624,5.815,0,9.998-3.409,9.998-11.624v-4.778c0-8.215-4.183-11.622-9.998-11.622"/>
    </g>
    <g transform="translate(543.1465,574.2637)">
     <path style="fill-rule:nonzero;fill:#ffffff;" d="m0,0-2.08,0c-0.3,0-0.639,0.227-0.639,0.645v23.725c0,0.378-0.116,0.417-0.265,0.417-0.153,0-0.263-0.073-0.379-0.417l-4.688-12.016c-0.376-0.98-0.789-1.511-1.769-1.511h-1.969c-0.983,0-1.394,0.531-1.773,1.511l-4.687,12.016c-0.115,0.344-0.227,0.417-0.376,0.417-0.152,0-0.269-0.039-0.269-0.417v-23.725c0-0.418-0.335-0.645-0.638-0.645h-2.079c-0.418,0-0.645,0.303-0.645,0.755v24.638c0,2.531,1.097,2.683,2.573,2.683h1.395c1.666,0,2.042-0.494,2.834-2.531l4.385-11.489c0.111-0.342,0.15-0.342,0.26-0.342,0.116,0,0.158,0,0.268,0.342l4.386,11.489c0.789,2.037,1.241,2.531,2.834,2.531h1.393c1.475,0,2.572-0.152,2.572-2.683v-24.638c0-0.452-0.227-0.755-0.644-0.755"/>
    </g>
   </g>
  </g>
 </g>
</svg>
